<svg width="46" height="46" viewBox="0 0 46 46" fill="none" xmlns="http://www.w3.org/2000/svg">
<g clip-path="url(#clip0_444_8)">
<mask id="mask0_444_8" style="mask-type:luminance" maskUnits="userSpaceOnUse" x="0" y="0" width="46" height="46">
<path d="M45.2549 22.6274L22.6274 0L2.47955e-05 22.6274L22.6274 45.2548L45.2549 22.6274Z" fill="white"/>
</mask>
<g mask="url(#mask0_444_8)">
<path d="M27.8496 32.2334C28.508 32.0881 29.0972 31.7225 29.5198 31.1971C29.9424 30.6716 30.1731 30.0178 30.1739 29.3435C30.1715 28.8234 30.0302 28.3134 29.7645 27.8663C30.3317 27.6107 30.8133 27.1971 31.1517 26.6749C31.49 26.1528 31.6707 25.5441 31.6722 24.9219C31.6658 24.4171 31.5362 23.9214 31.2946 23.478L37.8 23.478C38.2554 23.4838 38.7074 23.3991 39.1298 23.2288C39.5522 23.0585 39.9366 22.806 40.2606 22.486C40.5847 22.1659 40.8419 21.7848 41.0175 21.3645C41.1931 20.9443 41.2835 20.4934 41.2835 20.038C41.2834 19.5825 41.1929 19.1316 41.0173 18.7115C40.8416 18.2913 40.5842 17.9101 40.2601 17.5902C39.936 17.2702 39.5516 17.0178 39.1292 16.8476C38.7067 16.6774 38.2547 16.5927 37.7993 16.5986L25.1025 16.5986C24.5595 15.6141 23.7238 14.8228 22.7111 14.3344C21.3372 13.7974 19.8695 13.5418 18.3949 13.583C16.9204 13.6242 15.4692 13.9612 14.1275 14.5742C12.6762 15.3045 11.3859 16.3181 10.3329 17.5553C9.27981 18.7925 8.48527 20.2281 7.99617 21.7774C7.43777 23.1932 7.18826 24.7118 7.26436 26.2318C7.34046 27.7518 7.74038 29.2379 8.43738 30.5908C9.04921 31.6815 9.88562 32.6298 10.8913 33.3731C11.8969 34.1164 13.0489 34.6378 14.271 34.9027C17.7889 35.5293 21.3616 35.7949 24.9335 35.6954C25.3222 35.6957 25.7071 35.6194 26.0663 35.4708C26.4255 35.3221 26.7518 35.1042 27.0267 34.8293C27.3015 34.5545 27.5195 34.2281 27.6681 33.869C27.8167 33.5098 27.893 33.1249 27.8927 32.7362C27.8925 32.5677 27.8781 32.3995 27.8496 32.2334ZM24.9052 33.8612C21.4735 33.9522 18.0414 33.7 14.6599 33.1081C13.6919 32.898 12.7794 32.4851 11.9826 31.8965C11.1858 31.3079 10.5229 30.557 10.0376 29.6935C9.45462 28.5714 9.12481 27.3351 9.07142 26.0717C9.01803 24.8083 9.24235 23.5486 9.72857 22.3813C10.1381 21.0633 10.8072 19.8406 11.6967 18.7853C12.5861 17.73 13.6778 16.8634 14.9074 16.2366C16.0208 15.73 17.2244 15.4516 18.4471 15.4179C19.6698 15.3841 20.8869 15.5956 22.0266 16.04C22.3188 16.1754 22.5827 16.3649 22.8044 16.5986L19.3466 16.5986C19.1028 16.5986 18.869 16.6954 18.6966 16.8678C18.5243 17.0402 18.4274 17.274 18.4274 17.5178C18.4274 17.7616 18.5242 17.9954 18.6966 18.1678C18.869 18.3402 19.1029 18.4371 19.3467 18.4371L24.563 18.4364L37.7922 18.4371C38.2174 18.4371 38.6251 18.6059 38.9257 18.9066C39.2264 19.2072 39.3952 19.6149 39.3952 20.0401C39.3952 20.4652 39.2264 20.873 38.9257 21.1736C38.6251 21.4742 38.2174 21.6431 37.7922 21.6431L26.5068 21.6431C26.263 21.6431 26.0292 21.7399 25.8568 21.9123C25.6844 22.0847 25.5876 22.3185 25.5876 22.5623C25.5876 22.8061 25.6844 23.0399 25.8568 23.2123C26.0292 23.3847 26.263 23.4816 26.5068 23.4816L28.2258 23.4823C28.2913 23.5039 28.3592 23.5177 28.428 23.5233C28.797 23.5318 29.1486 23.6822 29.4096 23.9432C29.6706 24.2042 29.821 24.5558 29.8295 24.9248C29.8282 25.1123 29.7897 25.2976 29.7161 25.4701C29.6426 25.6426 29.5355 25.7987 29.4011 25.9295C29.2667 26.0602 29.1076 26.1629 28.9332 26.2316C28.7587 26.3004 28.5723 26.3337 28.3849 26.3298L27.0838 26.3892C26.9634 26.3948 26.8452 26.424 26.7361 26.4752C26.6269 26.5265 26.529 26.5987 26.4477 26.6878C26.3665 26.7769 26.3036 26.8811 26.2627 26.9945C26.2217 27.1079 26.2035 27.2283 26.2091 27.3487C26.2147 27.4692 26.2439 27.5873 26.2952 27.6965C26.3464 27.8056 26.4186 27.9036 26.5077 27.9848C26.5968 28.066 26.7011 28.1289 26.8145 28.1698C26.9279 28.2108 27.0482 28.229 27.1687 28.2234L27.1976 28.2227L27.2097 28.2248C27.4946 28.2289 27.7672 28.3412 27.9724 28.5388C28.1777 28.7365 28.3001 29.0047 28.3149 29.2893C28.3298 29.5738 28.2359 29.8533 28.0523 30.0712C27.8688 30.2891 27.6093 30.4291 27.3264 30.4628L26.4439 30.197C25.9857 29.9245 25.4623 29.7814 24.9293 29.7826C24.7093 29.7835 24.4969 29.8633 24.3308 30.0074C24.1647 30.1516 24.0558 30.3506 24.0238 30.5682C23.9919 30.7859 24.0391 31.0077 24.1568 31.1935C24.2746 31.3793 24.4551 31.5167 24.6655 31.5808L25.6434 31.8756C25.7642 31.9752 25.863 32.0989 25.9332 32.2388C26.0034 32.3787 26.0437 32.5318 26.0514 32.6881C26.059 32.8445 26.0339 33.0008 25.9777 33.1469C25.9214 33.293 25.8353 33.4257 25.7248 33.5366C25.6168 33.6425 25.4887 33.7257 25.3481 33.7813C25.2074 33.8369 25.0571 33.8638 24.9059 33.8605L24.9052 33.8612Z" fill="#EEEEEE"/>
</g>
</g>
<defs>
<clipPath id="clip0_444_8">
<rect width="32" height="32" fill="white" transform="translate(22.6274) rotate(45)"/>
</clipPath>
</defs>
</svg>
