<svg width="86" height="23" viewBox="0 0 86 23" fill="none" xmlns="http://www.w3.org/2000/svg">
<path d="M7.5 18.2135L7.94942 18.2409L8.4 18.2497L8.81587 18.2425L9.23891 18.2192C9.20691 18.8912 9.224 19.0159 9.48 19.4159C9.752 19.8319 10.136 20.1279 10.632 20.3039C11.144 20.4959 11.728 20.5919 12.384 20.5919C12.928 20.5919 13.4 20.5599 13.8 20.4959C14.216 20.4319 14.608 20.3439 14.976 20.2319V20.2319C15.5422 20.0842 16.104 20.5051 16.104 21.0903V21.2698C16.104 21.7421 15.7739 22.153 15.3076 22.2278C15.0272 22.2727 14.7407 22.3114 14.448 22.3439C13.872 22.4239 13.288 22.4639 12.696 22.4639C11.672 22.4639 10.752 22.3119 9.936 22.0079C9.136 21.7199 8.52 21.2399 8.088 20.5679C7.656 19.9119 7.452 19.2855 7.5 18.2135ZM8.4 18.2497C7.24609 18.2497 6.112 18.0799 5.088 17.6639C4.08 17.2319 3.192 16.6319 2.424 15.8639C1.656 15.0799 1.056 14.1519 0.624 13.0799C0.208 12.0079 0 10.8239 0 9.52794C0 8.23194 0.208 7.04794 0.624 5.97594C1.056 4.90394 1.656 3.98394 2.424 3.21594C3.192 2.43194 4.08 1.83194 5.088 1.41594C6.112 0.983944 7.216 0.767944 8.4 0.767944C9.584 0.767944 10.68 0.983944 11.688 1.41594C12.712 1.83194 13.608 2.43194 14.376 3.21594C15.144 3.98394 15.736 4.90394 16.152 5.97594C16.584 7.04794 16.8 8.23194 16.8 9.52794C16.8 10.8239 16.584 12.0079 16.152 13.0799C15.736 14.1519 15.144 15.0799 14.376 15.8639C13.608 16.6319 12.712 17.2319 11.688 17.6639C10.68 18.0799 9.584 18.2497 8.4 18.2497ZM8.4 16.8719C9.264 16.8719 10.064 16.7039 10.8 16.3679C11.536 16.0319 12.168 15.5439 12.696 14.9039C13.24 14.2479 13.656 13.4719 13.944 12.5759C14.248 11.6639 14.4 10.6479 14.4 9.52794C14.4 8.40794 14.248 7.39994 13.944 6.50394C13.656 5.59194 13.24 4.81594 12.696 4.17594C12.168 3.51994 11.536 3.02394 10.8 2.68794C10.064 2.35194 9.264 2.18394 8.4 2.18394C7.536 2.18394 6.736 2.35194 6 2.68794C5.264 3.02394 4.624 3.51994 4.08 4.17594C3.552 4.81594 3.136 5.59194 2.832 6.50394C2.544 7.39994 2.4 8.40794 2.4 9.52794C2.4 10.6479 2.544 11.6639 2.832 12.5759C3.136 13.4719 3.552 14.2479 4.08 14.9039C4.624 15.5439 5.264 16.0319 6 16.3679C6.736 16.7039 7.536 16.8719 8.4 16.8719Z" fill="#886611"/>
<path d="M21.68 7.17594C22.2323 7.17594 22.68 7.62366 22.68 8.17594V15.4559C22.68 16.0799 22.744 16.5919 22.872 16.9919C23 17.3759 23.208 17.6639 23.496 17.8559C23.8 18.0319 24.208 18.1199 24.72 18.1199C25.248 18.1199 25.744 18.0159 26.208 17.8079C26.672 17.5999 27.112 17.2959 27.528 16.8959C27.944 16.4799 28.336 15.9759 28.704 15.3839V17.0159C28.288 17.5919 27.864 18.0719 27.432 18.4559C27 18.8399 26.536 19.1279 26.04 19.3199C25.544 19.5119 24.984 19.6079 24.36 19.6079C23.608 19.6079 22.944 19.4719 22.368 19.1999C21.792 18.9279 21.344 18.5039 21.024 17.9279C20.704 17.3519 20.544 16.6239 20.544 15.7439V9.38394C20.544 9.03194 20.4 8.79194 20.112 8.66395C19.824 8.51995 19.376 8.39994 18.768 8.30394V8.30394C18.6018 8.27625 18.48 8.13246 18.48 7.96397V7.76064C18.48 7.43772 18.7418 7.17594 19.0647 7.17594H21.68ZM29.432 7.17594C29.9843 7.17594 30.432 7.62366 30.432 8.17594V12.6319V17.4239C30.432 17.6479 30.52 17.8239 30.696 17.9519C30.872 18.0799 31.104 18.1679 31.392 18.2159C31.6477 18.2563 31.9316 18.2797 32.2439 18.2861C32.3519 18.2883 32.4483 18.3558 32.4848 18.4575V18.4575C32.4949 18.4856 32.4999 18.5152 32.4998 18.545L32.4994 18.6305C32.4975 19.0383 32.1664 19.3679 31.7585 19.3679H29.512C28.9597 19.3679 28.512 18.9202 28.512 18.3679V18.1199V17.4959V17.1839V17.2742L28.704 17.0159V16.4218V15.3839L28.4294 15.8029L28.296 15.9908V16.5599V9.38394C28.296 9.03194 28.144 8.79194 27.84 8.66395C27.552 8.51995 27.096 8.40794 26.472 8.32794L26.4427 8.32395C26.157 8.28499 25.944 8.04096 25.944 7.75259V7.75259C25.944 7.43412 26.2022 7.17594 26.5207 7.17594H29.432Z" fill="#000044"/>
<path d="M36.332 7.46395C35.916 7.46395 35.564 7.33595 35.276 7.07995C35.004 6.80795 34.868 6.44794 34.868 5.99994C34.868 5.55194 35.004 5.19995 35.276 4.94395C35.564 4.68795 35.916 4.55994 36.332 4.55994C36.748 4.55994 37.092 4.68795 37.364 4.94395C37.652 5.19995 37.796 5.55194 37.796 5.99994C37.796 6.44794 37.652 6.80795 37.364 7.07995C37.092 7.33595 36.748 7.46395 36.332 7.46395ZM36.508 10.1519C37.0603 10.1519 37.508 10.5997 37.508 11.1519V15.2759V20.3999C37.508 20.7519 37.692 20.9839 38.06 21.0959C38.345 21.1791 38.643 21.2314 39.033 21.2528C39.2774 21.2662 39.476 21.4623 39.476 21.707V21.707V21.707C39.4891 22.0548 39.2107 22.3439 38.8626 22.3439H33.8992C33.5992 22.3439 33.356 22.1008 33.356 21.8008V21.8008V21.8008C33.3694 21.5005 33.6172 21.2675 33.917 21.2456C34.2566 21.2208 34.5496 21.1709 34.796 21.0959C35.18 20.9839 35.372 20.7519 35.372 20.3999V12.3599C35.372 12.0079 35.228 11.7679 34.94 11.6399C34.652 11.5119 34.204 11.3919 33.596 11.2799V11.2799C33.4431 11.2521 33.332 11.119 33.332 10.9636V10.7406C33.332 10.4155 33.5956 10.1519 33.9207 10.1519H36.508Z" fill="#886611"/>
<path d="M43.2513 17.9039H42.632H46.424C46.936 17.9039 47.376 17.8879 47.744 17.8559C48.112 17.8239 48.408 17.7759 48.632 17.7119C48.872 17.6319 49.048 17.5199 49.16 17.3759C49.288 17.2319 49.368 17.0479 49.4 16.8239L49.5842 15.4676C49.6299 15.131 49.9173 14.8799 50.257 14.8799V14.8799C50.632 14.8799 50.936 15.1839 50.936 15.5589V18.1999C50.936 18.7522 50.4883 19.1999 49.936 19.1999H42C41.4477 19.1999 41 18.7522 41 18.1999V18.1282C41 17.9051 41.0746 17.6885 41.2119 17.5127L48.4224 8.27994H49.064H45.872C45.344 8.27994 44.896 8.29594 44.528 8.32794C44.16 8.34394 43.864 8.39194 43.64 8.47194C43.416 8.55194 43.24 8.65594 43.112 8.78394C43 8.91194 42.928 9.08794 42.896 9.31194L42.7424 10.3255C42.6927 10.6535 42.4108 10.8959 42.079 10.8959V10.8959C41.7084 10.8959 41.408 10.5955 41.408 10.2249V8.00794C41.408 7.45566 41.8557 7.00795 42.408 7.00795H49.7059C50.2394 7.00795 50.672 7.4405 50.672 7.97407V7.97407C50.672 8.18793 50.601 8.39574 50.4703 8.56493L43.2513 17.9039Z" fill="#000044"/>
<path d="M55.832 7.46395C55.416 7.46395 55.064 7.33595 54.776 7.07995C54.504 6.80795 54.368 6.44794 54.368 5.99994C54.368 5.55194 54.504 5.19995 54.776 4.94395C55.064 4.68795 55.416 4.55994 55.832 4.55994C56.248 4.55994 56.592 4.68795 56.864 4.94395C57.152 5.19995 57.296 5.55194 57.296 5.99994C57.296 6.44794 57.152 6.80795 56.864 7.07995C56.592 7.33595 56.248 7.46395 55.832 7.46395ZM56.008 10.1519C56.5603 10.1519 57.008 10.5997 57.008 11.1519V20.3999C57.008 20.7519 57.192 20.9839 57.56 21.0959C57.8343 21.1759 58.1535 21.2274 58.5175 21.2502C58.7704 21.2661 58.976 21.4693 58.976 21.7227V21.7227V21.7227C58.9891 22.0618 58.7177 22.3439 58.3782 22.3439H53.4856C53.1418 22.3439 52.8669 22.0583 52.88 21.7148V21.7148V21.7148C52.88 21.4658 53.0821 21.266 53.3307 21.2513C53.7072 21.229 54.029 21.1772 54.296 21.0959C54.68 20.9839 54.872 20.7519 54.872 20.3999V12.3599C54.872 12.0079 54.728 11.7679 54.44 11.6399C54.152 11.5119 53.704 11.3919 53.096 11.2799V11.2799C52.9431 11.2521 52.832 11.119 52.832 10.9636V10.7406C52.832 10.4155 53.0956 10.1519 53.4207 10.1519H56.008Z" fill="#886611"/>
<path fill-rule="evenodd" clip-rule="evenodd" d="M63.068 7.176H61.268C60.8969 7.176 60.596 7.47686 60.596 7.848V7.848C60.596 8.21914 60.8969 8.52 61.268 8.52H63.068V17.424C63.068 17.776 62.876 18.008 62.492 18.12C62.124 18.232 61.612 18.288 60.956 18.288V18.288C60.8234 18.288 60.716 18.3955 60.716 18.528V18.828C60.716 19.1262 60.9578 19.368 61.256 19.368H67.256C67.5542 19.368 67.796 19.1262 67.796 18.828V18.576C67.796 18.4169 67.6671 18.288 67.508 18.288V18.288C67.076 18.288 66.684 18.28 66.332 18.264C65.996 18.248 65.724 18.224 65.516 18.192C65.308 18.144 65.204 18.096 65.204 18.048V8.52H68.036C68.4071 8.52 68.708 8.21914 68.708 7.848V7.848C68.708 7.47686 68.4071 7.176 68.036 7.176H65.204V5.664C65.204 4.848 65.308 4.224 65.516 3.792C65.724 3.344 66.004 3.04 66.356 2.88C66.724 2.72 67.14 2.64 67.604 2.64C67.972 2.64 68.316 2.688 68.636 2.784V2.784C69.0603 2.89008 69.5 2.58145 69.5 2.14408V2.03984C69.5 1.75075 69.3212 1.48857 69.0363 1.43993C68.9216 1.42036 68.7962 1.40438 68.66 1.392C68.308 1.344 67.956 1.32 67.604 1.32C66.852 1.32 66.124 1.456 65.42 1.728C64.732 1.984 64.164 2.424 63.716 3.048C63.284 3.672 63.068 4.544 63.068 5.664V7.176ZM63.068 7.176V8.52H64.652H65.204V7.176H64.652H63.068Z" fill="#000044"/>
<path d="M63.068 7.176V8.52H64.652H65.204V7.176H64.652H63.068Z" fill="#000044"/>
<path fill-rule="evenodd" clip-rule="evenodd" d="M78.7389 16.7039L79.0269 15.8159L78.5351 14.6087L81.9309 6.28794C81.9309 6.17594 81.8349 6.08794 81.6429 6.02394C81.4509 5.94394 81.2029 5.87994 80.8989 5.83194C80.8057 5.81723 80.6982 5.80477 80.5868 5.79186C80.3349 5.76265 80.063 5.73112 79.8909 5.66592L79.8024 5.47672C79.7457 5.35563 79.7358 5.21791 79.7744 5.08993V5.08993C79.8436 4.86076 80.0547 4.70394 80.2941 4.70394H84.653C84.9136 4.70394 85.1393 4.88472 85.1962 5.13902L85.1999 5.15524C85.2194 5.24257 85.215 5.33356 85.1871 5.41858V5.41858C85.1201 5.62227 84.929 5.75487 84.7167 5.78453C84.6021 5.80052 84.4895 5.82433 84.3789 5.85594C84.1549 5.90394 83.9469 6.00794 83.7549 6.16794C83.5629 6.31194 83.4029 6.53594 83.2749 6.83994L79.2669 16.4879C78.8349 17.5119 78.4029 18.3999 77.9709 19.1519C77.5389 19.9199 77.0909 20.5439 76.6269 21.0239C76.1789 21.5039 75.6989 21.8639 75.1869 22.1039C74.6749 22.3439 74.1149 22.4639 73.5069 22.4639C73.1069 22.4639 72.7709 22.4159 72.4989 22.3199C72.4444 22.3029 72.3917 22.2851 72.3408 22.2667C72.0221 22.1509 71.8509 21.8267 71.8509 21.4876V20.424C71.8509 20.2705 71.9986 20.1696 72.1389 20.2319V20.2319C72.2989 20.3119 72.4909 20.3839 72.7149 20.4479C72.9549 20.5119 73.2109 20.5439 73.4829 20.5439C73.8669 20.5439 74.2429 20.4799 74.6109 20.3519C74.9789 20.2399 75.3549 20.0079 75.7389 19.6559C76.1229 19.3199 76.5069 18.8239 76.8909 18.1679C77.0819 17.8547 77.2747 17.496 77.4693 17.0916L77.5389 17.2559L78.7389 16.7039ZM77.4693 17.0916C77.6823 16.649 77.8975 16.1518 78.1149 15.5999L78.3069 15.1679L78.5351 14.6087L75.0189 5.97594C75.0189 5.91194 75.1229 5.87194 75.3309 5.85594C75.5549 5.82394 75.8269 5.79994 76.1469 5.78394C76.3191 5.77574 76.4892 5.76964 76.6572 5.76565C76.9262 5.75925 77.1516 5.55634 77.1789 5.28867V5.28867V5.28867C77.1789 4.96574 76.9171 4.70394 76.5941 4.70394H71.6916C71.3919 4.70394 71.1322 4.91177 71.0665 5.20425V5.20425C71.0244 5.39147 71.0684 5.58769 71.1865 5.73897L71.2029 5.75994C71.5229 5.75994 71.8029 5.78394 72.0429 5.83194C72.2829 5.87994 72.4829 5.96794 72.6429 6.09594C72.8029 6.20794 72.9309 6.37594 73.0269 6.59994L77.4693 17.0916Z" fill="#886611"/>
<path d="M78.7389 16.7039L79.0269 15.8159L78.5351 14.6087L78.3069 15.1679L78.1149 15.5999C77.8975 16.1518 77.6823 16.649 77.4693 17.0916L77.5389 17.2559L78.7389 16.7039Z" fill="#886611"/>
</svg>
