<svg width="17" height="22" viewBox="0 0 17 22" fill="none" xmlns="http://www.w3.org/2000/svg">
<path d="M7.5 17.4456L7.94942 17.4729L8.4 17.4818L8.81587 17.4746L9.23891 17.4513C9.20691 18.1233 9.224 18.248 9.48 18.648C9.752 19.064 10.136 19.36 10.632 19.536C11.144 19.728 11.728 19.824 12.384 19.824C12.928 19.824 13.4 19.792 13.8 19.728C14.216 19.664 14.608 19.576 14.976 19.464V19.464C15.5422 19.3163 16.104 19.7372 16.104 20.3224V20.5019C16.104 20.9742 15.7739 21.3851 15.3076 21.4598C15.0272 21.5048 14.7407 21.5435 14.448 21.576C13.872 21.656 13.288 21.696 12.696 21.696C11.672 21.696 10.752 21.544 9.936 21.24C9.136 20.952 8.52 20.472 8.088 19.8C7.656 19.144 7.452 18.5176 7.5 17.4456ZM8.4 17.4818C7.24609 17.4818 6.112 17.312 5.088 16.896C4.08 16.464 3.192 15.864 2.424 15.096C1.656 14.312 1.056 13.384 0.624 12.312C0.208 11.24 0 10.056 0 8.76C0 7.464 0.208 6.28 0.624 5.208C1.056 4.136 1.656 3.216 2.424 2.448C3.192 1.664 4.08 1.064 5.088 0.648C6.112 0.216 7.216 0 8.4 0C9.584 0 10.68 0.216 11.688 0.648C12.712 1.064 13.608 1.664 14.376 2.448C15.144 3.216 15.736 4.136 16.152 5.208C16.584 6.28 16.8 7.464 16.8 8.76C16.8 10.056 16.584 11.24 16.152 12.312C15.736 13.384 15.144 14.312 14.376 15.096C13.608 15.864 12.712 16.464 11.688 16.896C10.68 17.312 9.584 17.4818 8.4 17.4818ZM8.4 16.104C9.264 16.104 10.064 15.936 10.8 15.6C11.536 15.264 12.168 14.776 12.696 14.136C13.24 13.48 13.656 12.704 13.944 11.808C14.248 10.896 14.4 9.88 14.4 8.76C14.4 7.64 14.248 6.632 13.944 5.736C13.656 4.824 13.24 4.048 12.696 3.408C12.168 2.752 11.536 2.256 10.8 1.92C10.064 1.584 9.264 1.416 8.4 1.416C7.536 1.416 6.736 1.584 6 1.92C5.264 2.256 4.624 2.752 4.08 3.408C3.552 4.048 3.136 4.824 2.832 5.736C2.544 6.632 2.4 7.64 2.4 8.76C2.4 9.88 2.544 10.896 2.832 11.808C3.136 12.704 3.552 13.48 4.08 14.136C4.624 14.776 5.264 15.264 6 15.6C6.736 15.936 7.536 16.104 8.4 16.104Z" fill="#886611"/>
</svg>
